<svg width="49" height="43" viewBox="0 0 49 43" fill="none" xmlns="http://www.w3.org/2000/svg">
<path d="M46.2716 10.4129C46.7254 9.85833 47.0655 9.21977 47.2724 8.53374C47.4794 7.8477 47.5492 7.12761 47.4779 6.41459C47.4066 5.70157 47.1955 5.00957 46.8568 4.37812C46.518 3.74666 46.0582 3.18811 45.5036 2.73436C44.949 2.2806 44.3105 1.94053 43.6244 1.73355C42.9384 1.52658 42.2183 1.45675 41.5053 1.52807C40.7923 1.59938 40.1003 1.81044 39.4688 2.14919C38.8373 2.48794 38.2788 2.94774 37.825 3.50235L16.5831 29.4641L9.85531 24.4169C9.28207 23.987 8.62976 23.6742 7.93563 23.4963C7.2415 23.3185 6.51914 23.2791 5.80979 23.3805C5.10044 23.4818 4.41799 23.7218 3.80142 24.0869C3.18485 24.452 2.64622 24.935 2.21629 25.5082C1.78636 26.0814 1.47355 26.7337 1.29571 27.4279C1.11788 28.122 1.0785 28.8444 1.17984 29.5537C1.3845 30.9863 2.14987 32.2789 3.30758 33.1472L12.1279 39.7632C13.8166 41.0299 15.9293 41.5952 18.0249 41.341C20.1205 41.0868 22.0368 40.0328 23.3737 38.399L46.2716 10.4129Z" stroke="#5331CF" stroke-width="2" stroke-linecap="round"/>
</svg>
