<svg width="40" height="40" viewBox="0 0 40 40" fill="none" xmlns="http://www.w3.org/2000/svg">
<path d="M31.1845 0.000522035C30.7148 -0.00758679 30.2482 0.0788444 29.8125 0.254674C29.3768 0.430504 28.9809 0.69214 28.6484 1.02402L27.0877 2.63259L37.3774 12.969L38.938 11.362C39.2747 11.0259 39.5418 10.6268 39.724 10.1875C39.9062 9.74817 40 9.27724 40 8.80165C40 8.32606 39.9062 7.85513 39.724 7.41581C39.5418 6.97649 39.2747 6.57739 38.938 6.24135L33.769 1.07238C33.0821 0.389139 32.1535 0.00403106 31.1845 0.000522035ZM25.332 4.0477L22.8926 6.38801L33.6223 17.1144L36.1101 14.8225L25.332 4.0477ZM21.3304 8.09488L4.45933 24.8156C4.26765 24.9137 4.09897 25.0513 3.96445 25.2194C3.82993 25.3875 3.73263 25.5823 3.67899 25.7907L0.0675551 38.0306C-0.0139858 38.2949 -0.0218661 38.5765 0.0447622 38.845C0.111391 39.1136 0.250005 39.3588 0.445687 39.5544C0.641369 39.7501 0.88671 39.8886 1.15531 39.9552C1.4239 40.0219 1.70558 40.014 1.97003 39.9325L14.2121 36.3237C14.49 36.2822 14.7509 36.1646 14.9661 35.984C15.1812 35.8033 15.3421 35.5667 15.431 35.3002L32.0617 18.8197L29.7706 16.5294L12.6998 33.6433L5.82337 35.6403L4.35945 34.1784L6.45701 27.0124L23.3811 10.1419L21.3304 8.09488ZM25.037 11.8487L7.91938 29.011L10.4056 29.5462L10.7473 31.8397L27.9149 14.7242L25.037 11.8487Z" fill="#5331CF"/>
</svg>
