<svg width="19" height="18" viewBox="0 0 19 18" fill="none" xmlns="http://www.w3.org/2000/svg">
<path d="M35.1151 5.87196C32.0828 2.83049 28.1513 0.846973 23.9033 0.215414C19.6552 -0.416145 15.3167 0.337871 11.5309 2.3657C7.74503 4.39353 4.71331 7.58723 2.88511 11.4734C1.05691 15.3596 0.529535 19.7315 1.38116 23.9409C2.23278 28.1504 4.41808 31.9734 7.61312 34.8433C10.8082 37.7133 14.8429 39.4773 19.1193 39.8741C23.3957 40.2708 27.6861 39.2791 31.3546 37.0459C35.023 34.8128 37.8743 31.457 39.4858 27.4761H33.9412C32.3975 30.2027 30.0379 32.3768 27.1944 33.6928C24.3508 35.0087 21.1663 35.4002 18.0886 34.8123C15.011 34.2243 12.1951 32.6864 10.0369 30.4149C7.87865 28.1434 6.48674 25.2526 6.05687 22.1489C5.62699 19.0452 6.18079 15.8849 7.64037 13.1123C9.09995 10.3397 11.3919 8.09441 14.1939 6.69209C16.9958 5.28978 20.1669 4.80102 23.2611 5.29456C26.3553 5.78809 29.2169 7.2391 31.4436 9.44351L23.5013 17.4857H40.9844V0.00264406L35.1151 5.87196Z" fill="#5331CF"/>
</svg>
