<svg width="38" height="44" viewBox="0 0 38 44" fill="none" xmlns="http://www.w3.org/2000/svg">
<path d="M11.8125 15.8125C12.1937 15.8125 12.5594 15.964 12.829 16.2335C13.0985 16.5031 13.25 16.8688 13.25 17.25V34.5C13.25 34.8812 13.0985 35.2469 12.829 35.5165C12.5594 35.7861 12.1937 35.9375 11.8125 35.9375C11.4313 35.9375 11.0656 35.7861 10.796 35.5165C10.5265 35.2469 10.375 34.8812 10.375 34.5V17.25C10.375 16.8688 10.5265 16.5031 10.796 16.2335C11.0656 15.964 11.4313 15.8125 11.8125 15.8125ZM19 15.8125C19.3812 15.8125 19.7469 15.964 20.0165 16.2335C20.2861 16.5031 20.4375 16.8688 20.4375 17.25V34.5C20.4375 34.8812 20.2861 35.2469 20.0165 35.5165C19.7469 35.7861 19.3812 35.9375 19 35.9375C18.6188 35.9375 18.2531 35.7861 17.9835 35.5165C17.714 35.2469 17.5625 34.8812 17.5625 34.5V17.25C17.5625 16.8688 17.714 16.5031 17.9835 16.2335C18.2531 15.964 18.6188 15.8125 19 15.8125ZM27.625 17.25C27.625 16.8688 27.4736 16.5031 27.204 16.2335C26.9344 15.964 26.5687 15.8125 26.1875 15.8125C25.8063 15.8125 25.4406 15.964 25.171 16.2335C24.9014 16.5031 24.75 16.8688 24.75 17.25V34.5C24.75 34.8812 24.9014 35.2469 25.171 35.5165C25.4406 35.7861 25.8063 35.9375 26.1875 35.9375C26.5687 35.9375 26.9344 35.7861 27.204 35.5165C27.4736 35.2469 27.625 34.8812 27.625 34.5V17.25Z" fill="#5331CF"/>
<path d="M37.6875 8.625C37.6875 9.3875 37.3846 10.1188 36.8454 10.6579C36.3063 11.1971 35.575 11.5 34.8125 11.5H33.375V37.375C33.375 38.9 32.7692 40.3625 31.6909 41.4409C30.6125 42.5192 29.15 43.125 27.625 43.125H10.375C8.85001 43.125 7.38747 42.5192 6.30914 41.4409C5.2308 40.3625 4.625 38.9 4.625 37.375V11.5H3.1875C2.425 11.5 1.69373 11.1971 1.15457 10.6579C0.615401 10.1188 0.3125 9.3875 0.3125 8.625V5.75C0.3125 4.9875 0.615401 4.25624 1.15457 3.71707C1.69373 3.1779 2.425 2.875 3.1875 2.875H13.25C13.25 2.1125 13.5529 1.38124 14.0921 0.842068C14.6312 0.302901 15.3625 0 16.125 0L21.875 0C22.6375 0 23.3688 0.302901 23.9079 0.842068C24.4471 1.38124 24.75 2.1125 24.75 2.875H34.8125C35.575 2.875 36.3063 3.1779 36.8454 3.71707C37.3846 4.25624 37.6875 4.9875 37.6875 5.75V8.625ZM7.83925 11.5L7.5 11.6696V37.375C7.5 38.1375 7.8029 38.8688 8.34207 39.4079C8.88124 39.9471 9.6125 40.25 10.375 40.25H27.625C28.3875 40.25 29.1188 39.9471 29.6579 39.4079C30.1971 38.8688 30.5 38.1375 30.5 37.375V11.6696L30.1607 11.5H7.83925ZM3.1875 8.625H34.8125V5.75H3.1875V8.625Z" fill="#5331CF"/>
</svg>
